<svg width="788" height="785" viewBox="0 0 788 785" fill="none" xmlns="http://www.w3.org/2000/svg">
<path fill-rule="evenodd" clip-rule="evenodd" d="M468.535 50.9422C636.352 32.7374 827.449 49.4334 896.87 187.174C966.497 325.323 858.996 472.87 735.127 579.894C605.106 692.233 434.807 792.479 276.522 723.162C97.3236 644.685 -2.15401 456.559 48.5058 279.204C93.5335 121.566 290.755 70.2277 468.535 50.9422Z" fill="#8645A0" fill-opacity="0.96"/>
<g clip-path="url(#clip0_2127_2)">
<path d="M244.743 552.392C244.133 551.307 243.862 550.079 243.974 548.92C244.304 546.446 245.529 544.355 247.393 543.086C251.026 540.386 254.781 541.59 256.614 544.174C257.056 544.797 257.39 545.492 257.597 546.219C257.804 546.945 257.88 547.688 257.819 548.403C257.683 549.496 257.343 550.516 256.82 551.404C256.296 552.292 255.599 553.03 254.769 553.575C251.383 556.086 246.673 555.736 244.743 552.392ZM229.674 547.923C229.122 546.923 228.907 545.787 229.073 544.742C229.54 542.373 230.815 540.403 232.661 539.199C236.318 536.542 239.929 537.497 241.608 539.813C242.012 540.381 242.31 541.02 242.481 541.686C242.652 542.352 242.692 543.029 242.598 543.67C242.2 545.786 241.061 547.541 239.403 548.592C235.993 551.059 231.291 550.724 229.674 547.923ZM252.98 566.659C251.036 563.293 253.103 559.065 256.978 557.391C257.866 556.944 258.853 556.71 259.884 556.701C260.914 556.691 261.968 556.907 262.983 557.336C263.63 557.641 264.233 558.078 264.757 558.619C265.28 559.16 265.714 559.795 266.032 560.487C267.353 563.367 266.519 567.221 262.365 569.016C260.333 569.996 257.909 570.012 255.601 569.061C254.541 568.578 253.614 567.729 252.98 566.659ZM249.215 581.769C247.19 578.261 249.561 574.559 253.419 572.857C255.173 571.949 257.284 571.866 259.322 572.625C259.938 572.884 260.517 573.276 261.019 573.775C261.52 574.275 261.934 574.871 262.231 575.523C263.444 578.215 262.509 581.896 258.373 583.723C256.386 584.713 254.017 584.799 251.723 583.965C250.712 583.556 249.82 582.774 249.215 581.769ZM228.179 581.385C227.235 579.81 226.654 578.053 226.496 576.289C226.376 575.171 226.009 574.061 225.428 573.055C224.847 572.048 224.069 571.176 223.161 570.513C217.293 566.43 216.418 558.227 223.1 554.563C230.337 550.384 241.989 554.832 245.739 561.328C249.489 567.824 247.516 580.138 240.279 584.317C235.683 586.97 230.707 585.764 228.179 581.385Z" fill="white" fill-opacity="0.16"/>
</g>
<g clip-path="url(#clip1_2127_2)">
<path d="M113.33 301.887C111.897 300.418 110.956 298.562 110.67 296.638C110.205 292.489 111.356 288.543 113.881 285.629C118.71 279.583 125.321 279.784 129.357 283.105C130.33 283.906 131.157 284.873 131.789 285.95C132.421 287.027 132.845 288.192 133.036 289.374C133.257 291.203 133.116 293.007 132.622 294.684C132.129 296.36 131.292 297.876 130.159 299.143C125.655 304.768 117.832 306.39 113.33 301.887ZM86.9476 301.668C85.6415 300.309 84.8316 298.575 84.679 296.81C84.4807 292.768 85.7614 288.996 88.2827 286.194C93.1693 280.205 99.4446 280.071 103.12 283.031C104.01 283.76 104.755 284.653 105.304 285.649C105.852 286.646 106.192 287.721 106.298 288.799C106.507 292.401 105.36 295.764 103.083 298.23C98.5219 303.798 90.7192 305.44 86.9476 301.668ZM132.543 321.101C128.01 316.568 129.667 308.78 135.307 304.277C136.574 303.145 138.089 302.308 139.765 301.814C141.442 301.32 143.247 301.18 145.076 301.401C146.254 301.594 147.415 302.018 148.488 302.649C149.562 303.28 150.526 304.104 151.325 305.073C154.647 309.11 154.847 315.72 148.801 320.549C145.886 323.075 141.94 324.227 137.79 323.762C135.867 323.474 134.012 322.533 132.543 321.101ZM132.527 347.247C127.803 342.524 130.169 335.445 135.771 330.905C138.263 328.624 141.672 327.51 145.302 327.79C146.412 327.921 147.515 328.285 148.535 328.859C149.556 329.433 150.471 330.203 151.22 331.118C154.289 334.902 154.257 341.28 148.253 346.151C145.414 348.672 141.585 349.912 137.507 349.629C135.693 349.438 133.921 348.59 132.527 347.247ZM98.0697 356.395C95.8927 354.292 94.234 351.723 93.2606 348.948C92.6115 347.199 91.564 345.577 90.2087 344.222C88.8534 342.866 87.2312 341.819 85.4822 341.17C74.2585 337.302 69.5076 324.463 78.9189 315.442C89.0265 305.334 109.828 307.107 118.576 315.855C127.323 324.602 129.096 345.404 118.988 355.511C112.57 361.93 103.967 362.293 98.0697 356.395Z" fill="white" fill-opacity="0.16"/>
</g>
<g clip-path="url(#clip2_2127_2)">
<path d="M325.255 112.15C323.441 111.19 321.977 109.71 321.116 107.966C319.403 104.159 319.291 100.05 320.803 96.5028C323.55 89.2688 329.905 87.4366 334.764 89.363C335.935 89.8273 337.018 90.4954 337.949 91.3273C338.881 92.1591 339.641 93.1378 340.185 94.2049C340.955 95.8784 341.373 97.6395 341.417 99.3866C341.46 101.134 341.126 102.833 340.436 104.385C337.87 111.119 330.92 115.058 325.255 112.15ZM300.072 120.016C298.412 119.122 297.11 117.719 296.425 116.085C294.999 112.298 295.063 108.315 296.606 104.876C299.425 97.679 305.358 95.63 309.764 97.3235C310.833 97.7447 311.816 98.3673 312.644 99.1477C313.471 99.9281 314.123 100.848 314.554 101.842C315.856 105.207 315.794 108.76 314.38 111.804C311.742 118.501 304.817 122.452 300.072 120.016ZM349.427 124.56C343.724 121.632 342.918 113.711 346.909 107.698C347.768 106.232 348.954 104.971 350.399 103.988C351.844 103.005 353.519 102.319 355.328 101.969C356.509 101.792 357.744 101.841 358.959 102.113C360.174 102.385 361.345 102.875 362.402 103.553C366.799 106.379 369.014 112.611 364.736 119.059C362.734 122.355 359.329 124.659 355.237 125.487C353.318 125.802 351.263 125.474 349.427 124.56ZM357.414 149.456C351.472 146.406 351.558 138.942 355.501 132.905C357.175 129.971 360.079 127.867 363.621 127.023C364.718 126.807 365.879 126.817 367.026 127.051C368.173 127.285 369.28 127.738 370.274 128.38C374.353 131.042 376.275 137.124 372.05 143.599C370.119 146.869 366.854 149.22 362.885 150.2C361.099 150.573 359.153 150.308 357.414 149.456ZM327.411 168.712C324.695 167.376 322.33 165.438 320.554 163.095C319.4 161.628 317.906 160.404 316.201 159.529C314.496 158.654 312.631 158.153 310.768 158.07C298.899 157.824 290.446 147.055 296.644 135.586C303.173 122.87 323.519 118.19 334.524 123.841C345.529 129.491 353.584 148.752 347.055 161.468C342.909 169.543 334.831 172.522 327.411 168.712Z" fill="white" fill-opacity="0.16"/>
</g>
<defs>
<clipPath id="clip0_2127_2">
<rect width="51.5356" height="43.2615" fill="white" transform="translate(248.466 530) rotate(60)"/>
</clipPath>
<clipPath id="clip1_2127_2">
<rect width="85" height="74" fill="white" transform="translate(110.326 264) rotate(45)"/>
</clipPath>
<clipPath id="clip2_2127_2">
<rect width="85" height="74" fill="white" transform="translate(310.798 77) rotate(27.1764)"/>
</clipPath>
</defs>
</svg>
