<svg width="138" height="42" viewBox="0 0 138 42" fill="none" xmlns="http://www.w3.org/2000/svg">
<path d="M22.5 19.125C22.5 19.6442 22.346 20.1517 22.0576 20.5834C21.7692 21.0151 21.3592 21.3515 20.8795 21.5502C20.3999 21.7489 19.8721 21.8008 19.3629 21.6996C18.8537 21.5983 18.386 21.3483 18.0188 20.9812C17.6517 20.614 17.4017 20.1463 17.3004 19.6371C17.1992 19.1279 17.2511 18.6001 17.4498 18.1205C17.6485 17.6408 17.985 17.2308 18.4166 16.9424C18.8483 16.654 19.3558 16.5 19.875 16.5C20.5712 16.5 21.2389 16.7766 21.7312 17.2688C22.2234 17.7611 22.5 18.4288 22.5 19.125ZM6.75 19.125C6.75 18.6058 6.59605 18.0983 6.30761 17.6666C6.01917 17.235 5.6092 16.8985 5.12955 16.6998C4.64989 16.5011 4.12209 16.4492 3.61289 16.5504C3.10369 16.6517 2.63596 16.9017 2.26885 17.2688C1.90173 17.636 1.65173 18.1037 1.55044 18.6129C1.44915 19.1221 1.50114 19.6499 1.69982 20.1295C1.8985 20.6092 2.23495 21.0192 2.66663 21.3076C3.09831 21.596 3.60583 21.75 4.125 21.75C4.82119 21.75 5.48887 21.4734 5.98116 20.9812C6.47344 20.4889 6.75 19.8212 6.75 19.125ZM8.625 17.25C9.14418 17.25 9.65169 17.096 10.0834 16.8076C10.5151 16.5192 10.8515 16.1092 11.0502 15.6295C11.2489 15.1499 11.3008 14.6221 11.1996 14.1129C11.0983 13.6037 10.8483 13.136 10.4812 12.7688C10.114 12.4017 9.64631 12.1517 9.13711 12.0504C8.62791 11.9492 8.10011 12.0011 7.62046 12.1998C7.1408 12.3985 6.73083 12.735 6.44239 13.1666C6.15395 13.5983 6 14.1058 6 14.625C6 15.3212 6.27656 15.9889 6.76885 16.4812C7.26113 16.9734 7.92881 17.25 8.625 17.25ZM15.375 17.25C15.8942 17.25 16.4017 17.096 16.8334 16.8076C17.2651 16.5192 17.6015 16.1092 17.8002 15.6295C17.9989 15.1499 18.0508 14.6221 17.9496 14.1129C17.8483 13.6037 17.5983 13.136 17.2312 12.7688C16.864 12.4017 16.3963 12.1517 15.8871 12.0504C15.3779 11.9492 14.8501 12.0011 14.3705 12.1998C13.8908 12.3985 13.4808 12.735 13.1924 13.1666C12.904 13.5983 12.75 14.1058 12.75 14.625C12.75 15.3212 13.0266 15.9889 13.5188 16.4812C14.0111 16.9734 14.6788 17.25 15.375 17.25ZM17.5425 22.9556C17.1615 22.7455 16.8258 22.4622 16.5544 22.1222C16.283 21.7821 16.0813 21.3918 15.9609 20.9738C15.7116 20.1162 15.1906 19.3627 14.4763 18.8265C13.7621 18.2904 12.8931 18.0005 12 18.0005C11.1069 18.0005 10.2379 18.2904 9.52366 18.8265C8.8094 19.3627 8.28843 20.1162 8.03906 20.9738C7.79818 21.815 7.23345 22.5264 6.46875 22.9519C5.73518 23.3488 5.15487 23.979 4.81962 24.7427C4.48437 25.5065 4.41331 26.3602 4.61768 27.1688C4.82205 27.9775 5.29018 28.6949 5.94804 29.2077C6.60589 29.7205 7.41592 29.9993 8.25 30C8.74984 30.0014 9.24479 29.9016 9.705 29.7066C11.1722 29.1015 12.8193 29.1015 14.2866 29.7066C15.1753 30.0931 16.1791 30.1205 17.0876 29.7832C17.9961 29.4458 18.7387 28.7698 19.1598 27.8969C19.5808 27.0241 19.6476 26.0221 19.3461 25.1011C19.0446 24.18 18.3982 23.4115 17.5425 22.9566V22.9556Z" fill="#8645A0" fill-opacity="0.96"/>
<path d="M47.7765 17.336C47.7765 18.3253 47.5432 19.2587 47.0765 20.136C46.6098 21.0133 45.8632 21.732 44.8365 22.292C43.8098 22.8333 42.4938 23.104 40.8885 23.104H37.3605V31H34.1685V11.54H40.8885C42.3818 11.54 43.6418 11.8013 44.6685 12.324C45.7139 12.828 46.4885 13.5187 46.9925 14.396C47.5152 15.2733 47.7765 16.2533 47.7765 17.336ZM40.8885 20.5C42.1018 20.5 43.0072 20.2293 43.6045 19.688C44.2019 19.128 44.5005 18.344 44.5005 17.336C44.5005 15.208 43.2965 14.144 40.8885 14.144H37.3605V20.5H40.8885ZM64.6809 22.908C64.6809 23.4867 64.6435 24.0093 64.5689 24.476H52.7809C52.8742 25.708 53.3315 26.6973 54.1529 27.444C54.9742 28.1907 55.9822 28.564 57.1769 28.564C58.8942 28.564 60.1075 27.8453 60.8169 26.408H64.2609C63.7942 27.8267 62.9449 28.9933 61.7129 29.908C60.4995 30.804 58.9875 31.252 57.1769 31.252C55.7022 31.252 54.3769 30.9253 53.2009 30.272C52.0435 29.6 51.1289 28.6667 50.4569 27.472C49.8035 26.2587 49.4769 24.8587 49.4769 23.272C49.4769 21.6853 49.7942 20.2947 50.4289 19.1C51.0822 17.8867 51.9875 16.9533 53.1449 16.3C54.3209 15.6467 55.6649 15.32 57.1769 15.32C58.6329 15.32 59.9302 15.6373 61.0689 16.272C62.2075 16.9067 63.0942 17.8027 63.7289 18.96C64.3635 20.0987 64.6809 21.4147 64.6809 22.908ZM61.3489 21.9C61.3302 20.724 60.9102 19.7813 60.0889 19.072C59.2675 18.3627 58.2502 18.008 57.0369 18.008C55.9355 18.008 54.9929 18.3627 54.2089 19.072C53.4249 19.7627 52.9582 20.7053 52.8089 21.9H61.3489ZM71.2661 18.176V26.716C71.2661 27.2947 71.3968 27.7147 71.6581 27.976C71.9381 28.2187 72.4048 28.34 73.0581 28.34H75.0181V31H72.4981C71.0608 31 69.9594 30.664 69.1941 29.992C68.4288 29.32 68.0461 28.228 68.0461 26.716V18.176H66.2261V15.572H68.0461V11.736H71.2661V15.572H75.0181V18.176H71.2661ZM84.3721 31.252C82.9161 31.252 81.6001 30.9253 80.4241 30.272C79.2481 29.6 78.3241 28.6667 77.6521 27.472C76.9801 26.2587 76.6441 24.8587 76.6441 23.272C76.6441 21.704 76.9894 20.3133 77.6801 19.1C78.3707 17.8867 79.3134 16.9533 80.5081 16.3C81.7027 15.6467 83.0374 15.32 84.5121 15.32C85.9867 15.32 87.3214 15.6467 88.5161 16.3C89.7107 16.9533 90.6534 17.8867 91.3441 19.1C92.0347 20.3133 92.3801 21.704 92.3801 23.272C92.3801 24.84 92.0254 26.2307 91.3161 27.444C90.6067 28.6573 89.6361 29.6 88.4041 30.272C87.1907 30.9253 85.8467 31.252 84.3721 31.252ZM84.3721 28.48C85.1934 28.48 85.9587 28.284 86.6681 27.892C87.3961 27.5 87.9841 26.912 88.4321 26.128C88.8801 25.344 89.1041 24.392 89.1041 23.272C89.1041 22.152 88.8894 21.2093 88.4601 20.444C88.0307 19.66 87.4614 19.072 86.7521 18.68C86.0427 18.288 85.2774 18.092 84.4561 18.092C83.6347 18.092 82.8694 18.288 82.1601 18.68C81.4694 19.072 80.9187 19.66 80.5081 20.444C80.0974 21.2093 79.8921 22.152 79.8921 23.272C79.8921 24.9333 80.3121 26.2213 81.1521 27.136C82.0107 28.032 83.0841 28.48 84.3721 28.48ZM98.4475 17.84C98.9889 17.1307 99.7262 16.5333 100.66 16.048C101.593 15.5627 102.648 15.32 103.824 15.32C105.168 15.32 106.39 15.656 107.492 16.328C108.612 16.9813 109.489 17.9053 110.124 19.1C110.758 20.2947 111.076 21.6667 111.076 23.216C111.076 24.7653 110.758 26.156 110.124 27.388C109.489 28.6013 108.612 29.5533 107.492 30.244C106.39 30.916 105.168 31.252 103.824 31.252C102.648 31.252 101.602 31.0187 100.688 30.552C99.7729 30.0667 99.0262 29.4693 98.4475 28.76V38.336H95.2555V15.572H98.4475V17.84ZM107.828 23.216C107.828 22.152 107.604 21.2373 107.156 20.472C106.726 19.688 106.148 19.1 105.42 18.708C104.71 18.2973 103.945 18.092 103.124 18.092C102.321 18.092 101.556 18.2973 100.828 18.708C100.118 19.1187 99.5395 19.716 99.0915 20.5C98.6622 21.284 98.4475 22.208 98.4475 23.272C98.4475 24.336 98.6622 25.2693 99.0915 26.072C99.5395 26.856 100.118 27.4533 100.828 27.864C101.556 28.2747 102.321 28.48 103.124 28.48C103.945 28.48 104.71 28.2747 105.42 27.864C106.148 27.4347 106.726 26.8187 107.156 26.016C107.604 25.2133 107.828 24.28 107.828 23.216ZM115.576 13.528C114.997 13.528 114.512 13.332 114.12 12.94C113.728 12.548 113.532 12.0627 113.532 11.484C113.532 10.9053 113.728 10.42 114.12 10.028C114.512 9.636 114.997 9.44 115.576 9.44C116.136 9.44 116.612 9.636 117.004 10.028C117.396 10.42 117.592 10.9053 117.592 11.484C117.592 12.0627 117.396 12.548 117.004 12.94C116.612 13.332 116.136 13.528 115.576 13.528ZM117.144 15.572V31H113.952V15.572H117.144ZM119.991 23.216C119.991 21.6667 120.308 20.2947 120.943 19.1C121.596 17.9053 122.474 16.9813 123.575 16.328C124.695 15.656 125.927 15.32 127.271 15.32C128.484 15.32 129.539 15.5627 130.435 16.048C131.35 16.5147 132.078 17.1027 132.619 17.812V15.572H135.839V31H132.619V28.704C132.078 29.432 131.34 30.0387 130.407 30.524C129.474 31.0093 128.41 31.252 127.215 31.252C125.89 31.252 124.676 30.916 123.575 30.244C122.474 29.5533 121.596 28.6013 120.943 27.388C120.308 26.156 119.991 24.7653 119.991 23.216ZM132.619 23.272C132.619 22.208 132.395 21.284 131.947 20.5C131.518 19.716 130.948 19.1187 130.239 18.708C129.53 18.2973 128.764 18.092 127.943 18.092C127.122 18.092 126.356 18.2973 125.647 18.708C124.938 19.1 124.359 19.688 123.911 20.472C123.482 21.2373 123.267 22.152 123.267 23.216C123.267 24.28 123.482 25.2133 123.911 26.016C124.359 26.8187 124.938 27.4347 125.647 27.864C126.375 28.2747 127.14 28.48 127.943 28.48C128.764 28.48 129.53 28.2747 130.239 27.864C130.948 27.4533 131.518 26.856 131.947 26.072C132.395 25.2693 132.619 24.336 132.619 23.272Z" fill="#8645A0" fill-opacity="0.96"/>
</svg>
