<svg width="242" height="213" viewBox="0 0 242 213" fill="none" xmlns="http://www.w3.org/2000/svg">
<path d="M64.4611 94.6612C63.9749 95.0324 63.3744 95.2223 62.7632 95.1984C61.4475 95.0984 60.2218 94.4924 59.3434 93.5078C57.5146 91.5965 57.6842 89.4892 58.7964 88.3947C59.0644 88.131 59.3828 87.924 59.7325 87.7861C60.0823 87.6482 60.4563 87.5822 60.8321 87.592C61.4124 87.631 61.9792 87.7844 62.4999 88.0434C63.0206 88.3024 63.4849 88.6618 63.8662 89.101C65.5676 90.8828 65.9533 93.4881 64.4611 94.6612ZM63.968 103.106C63.5184 103.443 62.9584 103.598 62.3994 103.541C61.1219 103.362 59.9529 102.725 59.11 101.748C57.3003 99.8219 57.3587 97.802 58.3513 96.8015C58.5953 96.5601 58.889 96.3749 59.212 96.2588C59.5349 96.1427 59.8793 96.0985 60.2211 96.1292C61.3602 96.2786 62.4023 96.8482 63.1431 97.7263C64.8255 99.5231 65.2178 102.123 63.968 103.106ZM70.8283 89.6558C69.3262 90.8366 66.8972 89.8376 65.568 87.7591C65.2313 87.285 64.9916 86.7489 64.8629 86.1818C64.7342 85.6146 64.7189 85.0276 64.818 84.4546C64.8978 84.0883 65.0503 83.7418 65.2665 83.4355C65.4827 83.1293 65.7581 82.8695 66.0765 82.6716C67.4026 81.8493 69.4904 82.182 70.9159 84.4104C71.6654 85.4967 71.965 86.831 71.7519 88.1334C71.6302 88.7327 71.3036 89.271 70.8283 89.6558ZM79.0726 91.2316C77.5074 92.4621 75.3132 91.2784 73.9716 89.2097C73.2924 88.2738 72.996 87.1141 73.1427 85.9671C73.2018 85.6191 73.3344 85.2876 73.5317 84.9949C73.7291 84.7022 73.9867 84.455 74.2872 84.2698C75.5296 83.5134 77.5402 83.9067 78.9797 86.124C79.7291 87.1857 80.0583 88.4876 79.9037 89.7779C79.8142 90.3479 79.5184 90.8653 79.0726 91.2316ZM81.4032 102.828C80.7049 103.399 79.8683 103.777 78.9777 103.922C78.4158 104.025 77.8874 104.263 77.4383 104.616C76.9891 104.969 76.6328 105.427 76.4 105.948C75 109.314 70.8751 110.066 68.182 106.507C65.1574 102.66 66.0507 96.0972 68.9496 93.8183C71.8485 91.5394 78.4362 92.2207 81.4608 96.0682C83.3816 98.5115 83.3577 101.291 81.4032 102.828Z" fill="#8645A0" fill-opacity="0.53"/>
<path d="M38.286 68.274C37.9372 68.7766 37.424 69.1417 36.8349 69.3065C35.552 69.6152 34.1995 69.4147 33.0613 68.7472C30.7341 67.4896 30.2487 65.4319 30.9712 64.0489C31.1454 63.7156 31.3848 63.4209 31.6754 63.1823C31.966 62.9437 32.3016 62.766 32.6623 62.66C33.2265 62.5191 33.8131 62.4911 34.3881 62.5778C34.9632 62.6644 35.5154 62.864 36.0131 63.1649C38.1793 64.3384 39.3461 66.6996 38.286 68.274ZM40.4087 76.4624C40.0843 76.9211 39.599 77.241 39.0495 77.3582C37.7786 77.5798 36.4705 77.3322 35.3685 76.6615C33.0549 75.3836 32.4905 73.4434 33.1281 72.1864C33.2862 71.8818 33.5089 71.6154 33.7806 71.4058C34.0523 71.1961 34.3665 71.0483 34.7013 70.9727C35.8312 70.7653 36.9979 70.9875 37.9724 71.5958C40.1251 72.7894 41.2966 75.1436 40.4087 76.4624ZM42.8094 61.5559C41.7423 63.1408 39.1239 62.9356 37.2209 61.3654C36.7549 61.0175 36.3622 60.5809 36.0657 60.0806C35.7691 59.5804 35.5744 59.0264 35.4927 58.4506C35.4563 58.0775 35.4951 57.7009 35.6068 57.3431C35.7185 56.9853 35.9009 56.6535 36.1432 56.3675C37.153 55.1778 39.2421 54.8536 41.2827 56.5369C42.3295 57.3406 43.0242 58.5186 43.2211 59.8236C43.2893 60.4313 43.1437 61.0438 42.8094 61.5559ZM51.1394 60.5251C50.0274 62.1766 47.5759 61.7236 45.6641 60.1665C44.7304 59.4843 44.0923 58.4716 43.8799 57.3349C43.8292 56.9855 43.8537 56.6294 43.9517 56.2902C44.0497 55.9511 44.219 55.6367 44.4482 55.3682C45.3984 54.267 47.4326 54.0242 49.4833 55.6926C50.5224 56.473 51.2353 57.611 51.4842 58.8865C51.574 59.4565 51.4513 60.0396 51.1394 60.5251ZM56.9169 70.8459C56.4277 71.6042 55.7474 72.2202 54.9444 72.632C54.4412 72.9025 54.0115 73.2916 53.6924 73.7654C53.3733 74.2393 53.1745 74.7838 53.1131 75.3518C52.8138 78.9849 49.1188 80.9665 45.4633 78.406C41.4037 75.6726 40.2396 69.1529 42.2991 66.0942C44.3585 63.0354 50.8373 61.6618 54.8969 64.3952C57.4749 66.131 58.3054 68.7837 56.9169 70.8459Z" fill="#8645A0" fill-opacity="0.53"/>
<path d="M11.445 46.9508C11.1581 47.4911 10.6918 47.9144 10.1263 48.1478C8.88906 48.6062 7.52229 48.5674 6.31306 48.0394C3.85328 47.0663 3.12762 45.0806 3.68124 43.6217C3.81467 43.2702 4.01757 42.9492 4.27781 42.6778C4.53806 42.4065 4.85031 42.1903 5.19594 42.0423C5.73949 41.8355 6.31857 41.7383 6.89986 41.7562C7.48114 41.7742 8.05313 41.9069 8.5829 42.1468C10.8729 43.0555 12.3111 45.2618 11.445 46.9508ZM14.5225 54.83C14.2547 55.324 13.8108 55.6991 13.279 55.8806C12.0433 56.2511 10.7151 56.1602 9.54139 55.6247C7.09269 54.6299 6.30247 52.7701 6.78672 51.4465C6.90765 51.1253 7.09722 50.8344 7.34219 50.5941C7.58717 50.3537 7.88165 50.1697 8.20507 50.055C9.30249 49.7152 10.4873 49.7977 11.527 50.2863C13.8059 51.2166 15.248 53.4154 14.5225 54.83ZM15.1408 39.7441C14.2689 41.4443 11.6446 41.5507 9.56909 40.2169C9.06513 39.9267 8.62356 39.5396 8.26981 39.078C7.91606 38.6164 7.6571 38.0894 7.50787 37.5273C7.42749 37.1612 7.4214 36.7826 7.48996 36.4141C7.55853 36.0456 7.70035 35.6945 7.90704 35.3818C8.76876 34.0809 10.8048 33.5116 13.0304 34.9413C14.165 35.6154 14.9944 36.7028 15.3445 37.9752C15.4841 38.5706 15.4121 39.1961 15.1408 39.7441ZM23.2901 37.734C22.3816 39.5056 19.8936 39.3461 17.8109 38.0264C16.803 37.4596 16.0494 36.5296 15.7039 35.4261C15.6122 35.0852 15.5943 34.7286 15.6514 34.3802C15.7086 34.0319 15.8394 33.6997 16.0352 33.4059C16.8483 32.1999 18.8395 31.7179 21.0733 33.1317C22.1975 33.7836 23.0402 34.829 23.4384 36.0661C23.5951 36.6214 23.5423 37.215 23.2901 37.734ZM30.2493 47.2979C29.8534 48.1088 29.2508 48.8011 28.5022 49.305C28.0346 49.6332 27.654 50.0704 27.3933 50.5788C27.1326 51.0871 26.9996 51.6513 27.0059 52.2226C27.1391 55.8655 23.7048 58.2709 19.7718 56.1613C15.417 53.928 13.4889 47.592 15.1716 44.3109C16.8543 41.0298 23.1248 38.8985 27.4796 41.1318C30.245 42.5501 31.3838 45.0857 30.2493 47.2979Z" fill="#8645A0" fill-opacity="0.53"/>
<path d="M92.4611 64.6612C91.9749 65.0324 91.3744 65.2223 90.7632 65.1984C89.4475 65.0984 88.2218 64.4924 87.3434 63.5078C85.5146 61.5965 85.6842 59.4892 86.7964 58.3947C87.0644 58.131 87.3828 57.924 87.7325 57.7861C88.0823 57.6482 88.4563 57.5822 88.8321 57.592C89.4124 57.631 89.9792 57.7844 90.4999 58.0434C91.0206 58.3024 91.4849 58.6618 91.8662 59.101C93.5676 60.8828 93.9533 63.4881 92.4611 64.6612ZM91.968 73.1057C91.5184 73.4428 90.9584 73.5983 90.3994 73.5412C89.1219 73.362 87.9529 72.7248 87.11 71.7482C85.3003 69.8219 85.3587 67.802 86.3513 66.8015C86.5953 66.5601 86.889 66.3749 87.212 66.2588C87.5349 66.1427 87.8793 66.0985 88.2211 66.1292C89.3602 66.2786 90.4023 66.8482 91.1431 67.7263C92.8255 69.5231 93.2178 72.1232 91.968 73.1057ZM98.8283 59.6558C97.3262 60.8366 94.8972 59.8376 93.568 57.7591C93.2313 57.285 92.9916 56.7489 92.8629 56.1818C92.7342 55.6146 92.7189 55.0276 92.818 54.4546C92.8978 54.0883 93.0503 53.7418 93.2665 53.4355C93.4827 53.1293 93.7581 52.8695 94.0765 52.6716C95.4026 51.8493 97.4904 52.182 98.9159 54.4104C99.6654 55.4967 99.965 56.831 99.7519 58.1334C99.6302 58.7327 99.3036 59.271 98.8283 59.6558ZM107.073 61.2316C105.507 62.4621 103.313 61.2784 101.972 59.2097C101.292 58.2738 100.996 57.1141 101.143 55.9671C101.202 55.6191 101.334 55.2876 101.532 54.9949C101.729 54.7022 101.987 54.455 102.287 54.2698C103.53 53.5134 105.54 53.9067 106.98 56.124C107.729 57.1857 108.058 58.4876 107.904 59.7779C107.814 60.3479 107.518 60.8653 107.073 61.2316ZM109.403 72.8275C108.705 73.3991 107.868 73.7766 106.978 73.9219C106.416 74.025 105.887 74.2633 105.438 74.6164C104.989 74.9695 104.633 75.4266 104.4 75.9484C103 79.3142 98.8751 80.066 96.182 76.507C93.1574 72.6595 94.0507 66.0972 96.9496 63.8183C99.8485 61.5394 106.436 62.2207 109.461 66.0682C111.382 68.5115 111.358 71.2911 109.403 72.8275Z" fill="#8645A0" fill-opacity="0.53"/>
<path d="M128.461 156.661C127.975 157.032 127.374 157.222 126.763 157.198C125.447 157.098 124.222 156.492 123.343 155.508C121.515 153.597 121.684 151.489 122.796 150.395C123.064 150.131 123.383 149.924 123.733 149.786C124.082 149.648 124.456 149.582 124.832 149.592C125.412 149.631 125.979 149.784 126.5 150.043C127.021 150.302 127.485 150.662 127.866 151.101C129.568 152.883 129.953 155.488 128.461 156.661ZM127.968 165.106C127.518 165.443 126.958 165.598 126.399 165.541C125.122 165.362 123.953 164.725 123.11 163.748C121.3 161.822 121.359 159.802 122.351 158.801C122.595 158.56 122.889 158.375 123.212 158.259C123.535 158.143 123.879 158.098 124.221 158.129C125.36 158.279 126.402 158.848 127.143 159.726C128.825 161.523 129.218 164.123 127.968 165.106ZM134.828 151.656C133.326 152.837 130.897 151.838 129.568 149.759C129.231 149.285 128.992 148.749 128.863 148.182C128.734 147.615 128.719 147.028 128.818 146.455C128.898 146.088 129.05 145.742 129.266 145.436C129.483 145.129 129.758 144.87 130.076 144.672C131.403 143.849 133.49 144.182 134.916 146.41C135.665 147.497 135.965 148.831 135.752 150.133C135.63 150.733 135.304 151.271 134.828 151.656ZM143.073 153.232C141.507 154.462 139.313 153.278 137.972 151.21C137.292 150.274 136.996 149.114 137.143 147.967C137.202 147.619 137.334 147.288 137.532 146.995C137.729 146.702 137.987 146.455 138.287 146.27C139.53 145.513 141.54 145.907 142.98 148.124C143.729 149.186 144.058 150.488 143.904 151.778C143.814 152.348 143.518 152.865 143.073 153.232ZM145.403 164.828C144.705 165.399 143.868 165.777 142.978 165.922C142.416 166.025 141.887 166.263 141.438 166.616C140.989 166.969 140.633 167.427 140.4 167.948C139 171.314 134.875 172.066 132.182 168.507C129.157 164.66 130.051 158.097 132.95 155.818C135.849 153.539 142.436 154.221 145.461 158.068C147.382 160.512 147.358 163.291 145.403 164.828Z" fill="#8645A0" fill-opacity="0.53"/>
<path d="M220.965 164.09C220.787 164.675 220.412 165.18 219.902 165.519C218.776 166.207 217.428 166.433 216.139 166.148C213.538 165.668 212.443 163.859 212.704 162.321C212.768 161.951 212.905 161.596 213.108 161.28C213.311 160.963 213.575 160.691 213.886 160.479C214.379 160.171 214.929 159.964 215.503 159.87C216.076 159.775 216.663 159.795 217.229 159.928C219.652 160.378 221.489 162.265 220.965 164.09ZM225.505 171.227C225.337 171.763 224.974 172.217 224.487 172.498C223.346 173.1 222.026 173.267 220.771 172.968C218.176 172.464 217.042 170.792 217.261 169.4C217.318 169.061 217.448 168.739 217.642 168.456C217.836 168.173 218.089 167.936 218.385 167.761C219.396 167.215 220.574 167.068 221.689 167.347C224.104 167.82 225.944 169.699 225.505 171.227ZM223.2 156.305C222.673 158.142 220.119 158.752 217.825 157.844C217.274 157.657 216.766 157.362 216.33 156.977C215.894 156.593 215.538 156.126 215.283 155.603C215.134 155.259 215.055 154.889 215.051 154.514C215.047 154.139 215.118 153.767 215.261 153.421C215.855 151.978 217.743 151.026 220.203 152C221.446 152.442 222.47 153.349 223.059 154.53C223.311 155.088 223.361 155.715 223.2 156.305ZM230.809 152.76C230.259 154.674 227.787 154.998 225.489 154.105C224.391 153.743 223.472 152.976 222.92 151.96C222.764 151.643 222.678 151.296 222.666 150.944C222.655 150.591 222.72 150.24 222.855 149.914C223.42 148.573 225.281 147.716 227.745 148.672C228.974 149.095 230.003 149.958 230.632 151.095C230.893 151.61 230.956 152.202 230.809 152.76ZM239.483 160.802C239.251 161.674 238.793 162.469 238.156 163.108C237.76 163.52 237.471 164.023 237.313 164.572C237.156 165.121 237.134 165.7 237.25 166.26C238.084 169.808 235.178 172.831 230.912 171.52C226.208 170.169 223.094 164.324 224.112 160.78C225.13 157.236 230.871 153.935 235.575 155.286C238.562 156.144 240.169 158.412 239.483 160.802Z" fill="#8645A0" fill-opacity="0.53"/>
<path d="M168.247 180.308C167.906 180.816 167.398 181.189 166.812 181.363C165.534 181.691 164.179 181.512 163.03 180.862C160.684 179.641 160.167 177.591 160.868 176.197C161.037 175.861 161.271 175.562 161.558 175.319C161.845 175.076 162.178 174.893 162.537 174.782C163.099 174.632 163.685 174.595 164.261 174.673C164.838 174.751 165.393 174.942 165.895 175.235C168.079 176.375 169.283 178.717 168.247 180.308ZM170.496 188.462C170.179 188.926 169.699 189.254 169.151 189.379C167.884 189.621 166.572 189.393 165.46 188.74C163.127 187.498 162.532 185.567 163.15 184.3C163.304 183.993 163.522 183.723 163.791 183.509C164.059 183.295 164.371 183.143 164.704 183.062C165.831 182.837 167.001 183.041 167.985 183.634C170.156 184.794 171.364 187.13 170.496 188.462ZM172.666 173.521C171.623 175.122 169.002 174.957 167.075 173.417C166.604 173.076 166.204 172.646 165.9 172.15C165.596 171.654 165.392 171.104 165.302 170.529C165.26 170.157 165.292 169.779 165.399 169.42C165.505 169.06 165.682 168.726 165.92 168.436C166.911 167.231 168.995 166.874 171.061 168.526C172.12 169.313 172.833 170.48 173.051 171.782C173.128 172.389 172.992 173.003 172.666 173.521ZM180.979 172.361C179.892 174.029 177.434 173.614 175.498 172.087C174.554 171.419 173.901 170.417 173.671 169.284C173.615 168.935 173.634 168.578 173.726 168.238C173.819 167.897 173.983 167.58 174.208 167.308C175.141 166.192 177.172 165.918 179.248 167.555C180.299 168.319 181.029 169.446 181.298 170.717C181.397 171.286 181.283 171.871 180.979 172.361ZM186.915 182.591C186.438 183.357 185.767 183.983 184.971 184.407C184.472 184.686 184.048 185.081 183.737 185.56C183.425 186.039 183.235 186.586 183.182 187.155C182.939 190.792 179.275 192.831 175.58 190.327C171.479 187.657 170.214 181.156 172.226 178.066C174.238 174.976 180.694 173.502 184.796 176.172C187.4 177.868 188.272 180.507 186.915 182.591Z" fill="#8645A0" fill-opacity="0.53"/>
<path d="M209.207 196.692C208.918 197.231 208.449 197.652 207.883 197.883C206.644 198.336 205.277 198.292 204.07 197.758C201.615 196.774 200.898 194.785 201.458 193.329C201.593 192.978 201.797 192.658 202.059 192.388C202.32 192.117 202.633 191.903 202.979 191.756C203.524 191.552 204.103 191.457 204.685 191.478C205.266 191.498 205.837 191.633 206.366 191.876C208.652 192.794 210.08 195.007 209.207 196.692ZM212.25 204.585C211.98 205.078 211.534 205.451 211.001 205.63C209.764 205.995 208.436 205.898 207.265 205.358C204.821 204.352 204.039 202.489 204.529 201.167C204.651 200.847 204.842 200.557 205.088 200.317C205.334 200.078 205.629 199.895 205.953 199.782C207.052 199.447 208.237 199.535 209.274 200.028C211.549 200.968 212.981 203.174 212.25 204.585ZM212.934 189.502C212.055 191.198 209.43 191.293 207.361 189.95C206.858 189.658 206.418 189.269 206.066 188.806C205.715 188.342 205.458 187.814 205.311 187.251C205.233 186.885 205.228 186.506 205.298 186.138C205.368 185.77 205.512 185.42 205.72 185.108C206.587 183.811 208.626 183.25 210.845 184.69C211.977 185.369 212.801 186.46 213.146 187.734C213.283 188.33 213.208 188.955 212.934 189.502ZM221.092 187.528C220.176 189.295 217.689 189.125 215.612 187.796C214.607 187.225 213.857 186.291 213.516 185.186C213.426 184.845 213.41 184.488 213.469 184.14C213.527 183.792 213.66 183.461 213.857 183.168C214.675 181.965 216.668 181.492 218.896 182.916C220.017 183.573 220.855 184.622 221.248 185.86C221.402 186.417 221.347 187.01 221.092 187.528ZM228.009 197.122C227.61 197.931 227.004 198.621 226.253 199.122C225.784 199.448 225.402 199.883 225.139 200.391C224.876 200.898 224.741 201.461 224.744 202.033C224.861 205.676 221.417 208.066 217.493 205.939C213.148 203.687 211.248 197.342 212.945 194.069C214.642 190.795 220.922 188.692 225.267 190.944C228.026 192.374 229.154 194.915 228.009 197.122Z" fill="#8645A0" fill-opacity="0.53"/>
<path d="M148.499 121.432C147.998 121.783 147.39 121.949 146.781 121.901C145.47 121.749 144.269 121.095 143.431 120.076C141.679 118.094 141.932 115.995 143.087 114.945C143.365 114.692 143.692 114.498 144.047 114.374C144.402 114.25 144.778 114.199 145.153 114.224C145.731 114.286 146.292 114.462 146.802 114.741C147.312 115.021 147.761 115.398 148.125 115.852C149.754 117.7 150.036 120.319 148.499 121.432ZM147.671 129.85C147.208 130.169 146.642 130.302 146.086 130.223C144.817 129.993 143.674 129.31 142.87 128.301C141.138 126.304 141.277 124.288 142.309 123.328C142.562 123.096 142.863 122.923 143.19 122.82C143.517 122.716 143.863 122.686 144.204 122.73C145.336 122.925 146.355 123.535 147.06 124.442C148.67 126.304 148.958 128.918 147.671 129.85ZM155.059 116.683C153.512 117.803 151.124 116.709 149.879 114.579C149.561 114.092 149.343 113.547 149.237 112.975C149.131 112.403 149.139 111.816 149.26 111.247C149.355 110.884 149.521 110.544 149.749 110.247C149.977 109.949 150.263 109.701 150.589 109.516C151.946 108.747 154.019 109.162 155.355 111.445C156.061 112.56 156.307 113.906 156.043 115.198C155.897 115.792 155.55 116.317 155.059 116.683ZM163.235 118.585C161.622 119.752 159.476 118.482 158.218 116.362C157.577 115.4 157.326 114.229 157.519 113.089C157.591 112.744 157.737 112.418 157.946 112.133C158.155 111.848 158.422 111.612 158.73 111.439C160.001 110.732 161.994 111.205 163.345 113.478C164.051 114.568 164.329 115.882 164.123 117.165C164.011 117.731 163.695 118.236 163.235 118.585ZM165.103 130.264C164.383 130.808 163.532 131.151 162.636 131.261C162.07 131.342 161.533 131.559 161.07 131.894C160.607 132.229 160.233 132.672 159.98 133.184C158.447 136.491 154.296 137.079 151.746 133.416C148.877 129.451 150.03 122.93 153.017 120.768C156.004 118.606 162.559 119.548 165.429 123.512C167.251 126.03 167.117 128.807 165.103 130.264Z" fill="#8645A0" fill-opacity="0.53"/>
<path d="M184.005 149.411C183.705 149.944 183.228 150.356 182.657 150.576C181.409 151.004 180.044 150.932 178.848 150.374C176.412 149.341 175.735 147.339 176.324 145.894C176.466 145.546 176.677 145.23 176.944 144.965C177.211 144.7 177.528 144.491 177.877 144.352C178.426 144.158 179.007 144.075 179.588 144.107C180.168 144.139 180.737 144.286 181.261 144.539C183.528 145.503 184.912 147.744 184.005 149.411ZM186.889 157.363C186.609 157.85 186.157 158.215 185.62 158.383C184.376 158.723 183.05 158.6 181.89 158.036C179.466 156.982 178.722 155.103 179.238 153.792C179.367 153.474 179.564 153.188 179.814 152.953C180.065 152.719 180.364 152.542 180.69 152.435C181.795 152.123 182.978 152.234 184.005 152.748C186.261 153.733 187.649 155.967 186.889 157.363ZM187.875 142.297C186.962 143.975 184.336 144.018 182.294 142.634C181.797 142.331 181.365 141.933 181.022 141.463C180.68 140.993 180.434 140.46 180.299 139.895C180.227 139.527 180.23 139.148 180.308 138.781C180.385 138.414 180.536 138.067 180.75 137.759C181.643 136.48 183.692 135.96 185.883 137.444C187 138.145 187.803 139.253 188.122 140.533C188.247 141.132 188.16 141.755 187.875 142.297ZM196.071 140.486C195.12 142.235 192.636 142.015 190.586 140.645C189.593 140.054 188.862 139.105 188.543 137.994C188.46 137.651 188.451 137.294 188.516 136.947C188.582 136.6 188.721 136.271 188.924 135.982C189.766 134.796 191.768 134.363 193.967 135.831C195.075 136.51 195.892 137.576 196.26 138.822C196.403 139.381 196.336 139.973 196.071 140.486ZM202.795 150.217C202.379 151.018 201.76 151.695 200.999 152.181C200.524 152.497 200.133 152.925 199.86 153.427C199.587 153.929 199.44 154.49 199.432 155.061C199.477 158.706 195.985 161.027 192.104 158.822C187.805 156.483 186.032 150.102 187.795 146.863C189.557 143.624 195.877 141.646 200.176 143.985C202.906 145.47 203.983 148.033 202.795 150.217Z" fill="#8645A0" fill-opacity="0.53"/>
<path d="M96.4611 126.661C95.9749 127.032 95.3744 127.222 94.7632 127.198C93.4475 127.098 92.2218 126.492 91.3434 125.508C89.5146 123.597 89.6842 121.489 90.7964 120.395C91.0644 120.131 91.3828 119.924 91.7325 119.786C92.0823 119.648 92.4563 119.582 92.8321 119.592C93.4124 119.631 93.9792 119.784 94.4999 120.043C95.0206 120.302 95.4849 120.662 95.8662 121.101C97.5676 122.883 97.9533 125.488 96.4611 126.661ZM95.968 135.106C95.5184 135.443 94.9584 135.598 94.3994 135.541C93.1219 135.362 91.9529 134.725 91.11 133.748C89.3003 131.822 89.3587 129.802 90.3513 128.801C90.5953 128.56 90.889 128.375 91.212 128.259C91.5349 128.143 91.8793 128.098 92.2211 128.129C93.3602 128.279 94.4023 128.848 95.1431 129.726C96.8255 131.523 97.2178 134.123 95.968 135.106ZM102.828 121.656C101.326 122.837 98.8972 121.838 97.568 119.759C97.2313 119.285 96.9916 118.749 96.8629 118.182C96.7342 117.615 96.7189 117.028 96.818 116.455C96.8978 116.088 97.0503 115.742 97.2665 115.436C97.4827 115.129 97.7581 114.87 98.0765 114.672C99.4026 113.849 101.49 114.182 102.916 116.41C103.665 117.497 103.965 118.831 103.752 120.133C103.63 120.733 103.304 121.271 102.828 121.656ZM111.073 123.232C109.507 124.462 107.313 123.278 105.972 121.21C105.292 120.274 104.996 119.114 105.143 117.967C105.202 117.619 105.334 117.288 105.532 116.995C105.729 116.702 105.987 116.455 106.287 116.27C107.53 115.513 109.54 115.907 110.98 118.124C111.729 119.186 112.058 120.488 111.904 121.778C111.814 122.348 111.518 122.865 111.073 123.232ZM113.403 134.828C112.705 135.399 111.868 135.777 110.978 135.922C110.416 136.025 109.887 136.263 109.438 136.616C108.989 136.969 108.633 137.427 108.4 137.948C107 141.314 102.875 142.066 100.182 138.507C97.1574 134.66 98.0507 128.097 100.95 125.818C103.849 123.539 110.436 124.221 113.461 128.068C115.382 130.512 115.358 133.291 113.403 134.828Z" fill="#8645A0" fill-opacity="0.53"/>
<path d="M123.461 92.6612C122.975 93.0324 122.374 93.2223 121.763 93.1984C120.447 93.0984 119.222 92.4924 118.343 91.5078C116.515 89.5965 116.684 87.4892 117.796 86.3947C118.064 86.131 118.383 85.924 118.733 85.7861C119.082 85.6482 119.456 85.5822 119.832 85.592C120.412 85.631 120.979 85.7844 121.5 86.0434C122.021 86.3024 122.485 86.6618 122.866 87.101C124.568 88.8828 124.953 91.4881 123.461 92.6612ZM122.968 101.106C122.518 101.443 121.958 101.598 121.399 101.541C120.122 101.362 118.953 100.725 118.11 99.7482C116.3 97.8219 116.359 95.802 117.351 94.8015C117.595 94.5601 117.889 94.3749 118.212 94.2588C118.535 94.1427 118.879 94.0985 119.221 94.1292C120.36 94.2786 121.402 94.8482 122.143 95.7263C123.825 97.5231 124.218 100.123 122.968 101.106ZM129.828 87.6558C128.326 88.8366 125.897 87.8376 124.568 85.7591C124.231 85.285 123.992 84.7489 123.863 84.1818C123.734 83.6146 123.719 83.0276 123.818 82.4546C123.898 82.0883 124.05 81.7418 124.266 81.4355C124.483 81.1293 124.758 80.8695 125.076 80.6716C126.403 79.8493 128.49 80.182 129.916 82.4104C130.665 83.4967 130.965 84.831 130.752 86.1334C130.63 86.7327 130.304 87.271 129.828 87.6558ZM138.073 89.2316C136.507 90.4621 134.313 89.2784 132.972 87.2097C132.292 86.2738 131.996 85.1141 132.143 83.9671C132.202 83.6191 132.334 83.2876 132.532 82.9949C132.729 82.7022 132.987 82.455 133.287 82.2698C134.53 81.5134 136.54 81.9067 137.98 84.124C138.729 85.1857 139.058 86.4876 138.904 87.7779C138.814 88.3479 138.518 88.8653 138.073 89.2316ZM140.403 100.828C139.705 101.399 138.868 101.777 137.978 101.922C137.416 102.025 136.887 102.263 136.438 102.616C135.989 102.969 135.633 103.427 135.4 103.948C134 107.314 129.875 108.066 127.182 104.507C124.157 100.66 125.051 94.0972 127.95 91.8183C130.849 89.5394 137.436 90.2207 140.461 94.0682C142.382 96.5115 142.358 99.2911 140.403 100.828Z" fill="#8645A0" fill-opacity="0.53"/>
<path d="M64.6289 40.0936C64.3359 40.6306 63.8647 41.0486 63.2967 41.2755C62.0542 41.7198 60.688 41.6653 59.4849 41.1235C57.0364 40.1223 56.3335 38.1285 56.9038 36.676C57.0412 36.326 57.2478 36.0074 57.5111 35.739C57.7744 35.4706 58.0891 35.2581 58.4364 35.114C58.9823 34.9135 59.5625 34.8229 60.1435 34.8475C60.7246 34.872 61.295 35.0113 61.822 35.2573C64.1014 36.1921 65.5143 38.4147 64.6289 40.0936ZM67.6161 48.0076C67.3427 48.4985 66.8945 48.8684 66.3607 49.0438C65.1209 49.4002 63.7937 49.2941 62.6263 48.7452C60.1891 47.7225 59.4202 45.8538 59.9196 44.5358C60.0442 44.216 60.237 43.9273 60.4847 43.6898C60.7325 43.4522 61.029 43.2716 61.3537 43.1606C62.455 42.8334 63.6387 42.9294 64.6728 43.4299C66.9409 44.3861 68.3578 46.6013 67.6161 48.0076ZM68.407 32.9297C67.5156 34.6199 64.8903 34.6962 62.8302 33.3388C62.3296 33.0428 61.8925 32.6507 61.544 32.1851C61.1956 31.7195 60.9427 31.1895 60.7999 30.6258C60.7237 30.2587 60.7219 29.8801 60.7947 29.5124C60.8675 29.1447 61.0133 28.7953 61.2235 28.4849C62.1001 27.194 64.1425 26.648 66.3516 28.103C67.4784 28.7901 68.2953 29.8869 68.6308 31.1633C68.7636 31.7602 68.6845 32.3848 68.407 32.9297ZM76.5787 31.013C75.6499 32.774 73.164 32.5861 71.0965 31.2427C70.0951 30.6644 69.3522 29.7258 69.0194 28.6184C68.9316 28.2765 68.9178 27.9197 68.9789 27.572C69.04 27.2243 69.1746 26.8937 69.3738 26.6022C70.2006 25.4055 72.1971 24.9463 74.4147 26.3855C75.5314 27.0503 76.362 28.1053 76.7461 29.3468C76.8964 29.9039 76.8368 30.4969 76.5787 31.013ZM83.4281 40.6558C83.0229 41.4621 82.4124 42.1475 81.6581 42.6428C81.1868 42.9657 80.8012 43.3985 80.5347 43.9038C80.2682 44.4092 80.1288 44.9718 80.1286 45.5431C80.2201 49.1873 76.7585 51.5532 72.8498 49.3988C68.5209 47.1158 66.6654 40.7582 68.3855 37.4966C70.1056 34.2349 76.4001 32.1755 80.729 34.4585C83.478 35.9082 84.5878 38.4568 83.4281 40.6558Z" fill="#8645A0" fill-opacity="0.53"/>
<path d="M31.3637 18.4518C31.1774 19.0345 30.7937 19.5339 30.2787 19.8641C29.1425 20.535 27.7906 20.7396 26.5068 20.4348C23.9133 19.9141 22.8464 18.089 23.132 16.5549C23.2009 16.1853 23.3435 15.8334 23.5514 15.5201C23.7593 15.2068 24.0282 14.9386 24.342 14.7316C24.8402 14.4315 25.3928 14.233 25.968 14.1473C26.5433 14.0617 27.1297 14.0907 27.6937 14.2327C30.1087 14.7201 31.916 16.6358 31.3637 18.4518ZM35.792 25.659C35.6163 26.1927 35.246 26.6406 34.755 26.9137C33.6047 27.4979 32.2815 27.6444 31.0313 27.3259C28.4448 26.782 27.3368 25.0922 27.5782 23.7035C27.6402 23.366 27.775 23.046 27.9734 22.766C28.1718 22.486 28.4289 22.2526 28.7268 22.0822C29.7464 21.5529 30.927 21.4236 32.037 21.7197C34.4449 22.2303 36.2547 24.138 35.792 25.659ZM33.7205 10.7032C33.1645 12.5313 30.6008 13.1021 28.3213 12.1583C27.7738 11.9622 27.2705 11.6598 26.8404 11.2684C26.4103 10.8769 26.0618 10.4043 25.8151 9.87769C25.671 9.53165 25.5977 9.1602 25.5997 8.78535C25.6017 8.41049 25.6789 8.03984 25.8268 7.69536C26.4437 6.26208 28.3461 5.34008 30.7904 6.35166C32.0267 6.8135 33.036 7.73626 33.6066 8.92628C33.8498 9.4874 33.8901 10.1157 33.7205 10.7032ZM41.383 7.27733C40.8037 9.18215 38.327 9.46715 36.0429 8.5385C34.9503 8.15978 34.0435 7.3784 33.5074 6.35384C33.3566 6.03463 33.2757 5.68692 33.27 5.33393C33.2644 4.98094 33.3341 4.63081 33.4746 4.30693C34.0605 2.97566 35.9344 2.14759 38.3838 3.142C39.606 3.58382 40.621 4.46297 41.2327 5.60956C41.4855 6.12827 41.539 6.72177 41.383 7.27733ZM49.9306 15.4527C49.685 16.3211 49.215 17.1094 48.5678 17.7383C48.166 18.1444 47.8691 18.6423 47.7029 19.1888C47.5366 19.7354 47.506 20.3143 47.6137 20.8753C48.3919 24.4366 45.4395 27.4138 41.1943 26.0365C36.512 24.6124 33.489 18.7198 34.562 15.1919C35.6351 11.664 41.4272 8.45266 46.1095 9.87683C49.0828 10.7812 50.654 13.0742 49.9306 15.4527Z" fill="#8645A0" fill-opacity="0.53"/>
</svg>
