<svg width="21" height="19" viewBox="0 0 21 19" fill="none" xmlns="http://www.w3.org/2000/svg">
<path d="M20.0306 4.28068L17.2274 7.08381C16.6612 13.6482 11.1252 18.7501 4.49992 18.7501C3.13867 18.7501 2.01649 18.5344 1.1643 18.1088C0.477112 17.7647 0.195862 17.3963 0.12555 17.2913C0.0628537 17.1973 0.0222163 17.0903 0.00667402 16.9784C-0.00886824 16.8664 0.00108658 16.7524 0.0357942 16.6449C0.0705019 16.5373 0.129065 16.439 0.207108 16.3573C0.285151 16.2756 0.380656 16.2125 0.486487 16.1729C0.510862 16.1635 2.75899 15.3001 4.1868 13.6566C3.39497 13.0056 2.70375 12.2411 2.13555 11.3879C0.97305 9.66193 -0.328201 6.66381 0.0730494 2.1835C0.0857678 2.04113 0.138901 1.90537 0.226192 1.79219C0.313484 1.67901 0.431298 1.59313 0.56576 1.54467C0.700223 1.4962 0.845735 1.48717 0.98516 1.51863C1.12458 1.55009 1.25212 1.62073 1.35274 1.72225C1.38555 1.75506 4.47274 4.82537 8.24711 5.821V5.25006C8.24568 4.65137 8.36405 4.05844 8.59525 3.50619C8.82645 2.95394 9.16582 2.45353 9.59336 2.03443C10.0086 1.6198 10.5026 1.29253 11.0464 1.07194C11.5901 0.851352 12.1726 0.741904 12.7593 0.750058C13.5464 0.757821 14.3181 0.969108 14.9993 1.36338C15.6806 1.75764 16.2483 2.32148 16.6471 3.00006H19.4999C19.6483 2.99994 19.7935 3.04386 19.9169 3.12627C20.0404 3.20867 20.1366 3.32585 20.1934 3.46297C20.2502 3.60008 20.2651 3.75097 20.2361 3.89654C20.2071 4.0421 20.1356 4.17579 20.0306 4.28068Z" fill="#8645A0" fill-opacity="0.96"/>
</svg>
