<svg width="36" height="36" viewBox="0 0 36 36" fill="none" xmlns="http://www.w3.org/2000/svg">
<rect width="36" height="36" rx="18" fill="#8645A0" fill-opacity="0.96"/>
<path d="M26.75 16.4375C26.75 16.8701 26.6217 17.2931 26.3813 17.6528C26.141 18.0125 25.7993 18.2929 25.3996 18.4585C24.9999 18.6241 24.5601 18.6674 24.1357 18.583C23.7114 18.4986 23.3216 18.2902 23.0157 17.9843C22.7098 17.6784 22.5014 17.2886 22.417 16.8643C22.3326 16.4399 22.3759 16.0001 22.5415 15.6004C22.7071 15.2007 22.9875 14.859 23.3472 14.6187C23.7069 14.3783 24.1299 14.25 24.5625 14.25C25.1427 14.25 25.6991 14.4805 26.1093 14.8907C26.5195 15.3009 26.75 15.8573 26.75 16.4375ZM13.625 16.4375C13.625 16.0049 13.4967 15.5819 13.2563 15.2222C13.016 14.8625 12.6743 14.5821 12.2746 14.4165C11.8749 14.2509 11.4351 14.2076 11.0107 14.292C10.5864 14.3764 10.1966 14.5848 9.8907 14.8907C9.58478 15.1966 9.37644 15.5864 9.29203 16.0107C9.20763 16.4351 9.25095 16.8749 9.41651 17.2746C9.58208 17.6743 9.86246 18.016 10.2222 18.2563C10.5819 18.4967 11.0049 18.625 11.4375 18.625C12.0177 18.625 12.5741 18.3945 12.9843 17.9843C13.3945 17.5741 13.625 17.0177 13.625 16.4375ZM15.1875 14.875C15.6201 14.875 16.0431 14.7467 16.4028 14.5063C16.7625 14.266 17.0429 13.9243 17.2085 13.5246C17.3741 13.1249 17.4174 12.6851 17.333 12.2607C17.2486 11.8364 17.0402 11.4466 16.7343 11.1407C16.4284 10.8348 16.0386 10.6264 15.6143 10.542C15.1899 10.4576 14.7501 10.5009 14.3504 10.6665C13.9507 10.8321 13.609 11.1125 13.3687 11.4722C13.1283 11.8319 13 12.2549 13 12.6875C13 13.2677 13.2305 13.8241 13.6407 14.2343C14.0509 14.6445 14.6073 14.875 15.1875 14.875ZM20.8125 14.875C21.2451 14.875 21.6681 14.7467 22.0278 14.5063C22.3875 14.266 22.6679 13.9243 22.8335 13.5246C22.9991 13.1249 23.0424 12.6851 22.958 12.2607C22.8736 11.8364 22.6652 11.4466 22.3593 11.1407C22.0534 10.8348 21.6636 10.6264 21.2393 10.542C20.8149 10.4576 20.3751 10.5009 19.9754 10.6665C19.5757 10.8321 19.234 11.1125 18.9937 11.4722C18.7533 11.8319 18.625 12.2549 18.625 12.6875C18.625 13.2677 18.8555 13.8241 19.2657 14.2343C19.6759 14.6445 20.2323 14.875 20.8125 14.875ZM22.6188 19.6297C22.3013 19.4546 22.0215 19.2185 21.7953 18.9351C21.5692 18.6517 21.4011 18.3265 21.3008 17.9781C21.093 17.2635 20.6588 16.6356 20.0636 16.1888C19.4684 15.742 18.7443 15.5004 18 15.5004C17.2558 15.5004 16.5316 15.742 15.9364 16.1888C15.3412 16.6356 14.907 17.2635 14.6992 17.9781C14.4985 18.6792 14.0279 19.272 13.3906 19.6266C12.7793 19.9573 12.2957 20.4825 12.0164 21.1189C11.737 21.7554 11.6778 22.4668 11.8481 23.1407C12.0184 23.8146 12.4085 24.4124 12.9567 24.8397C13.5049 25.267 14.1799 25.4994 14.875 25.5C15.2915 25.5012 15.704 25.418 16.0875 25.2555C17.3102 24.7512 18.6828 24.7512 19.9055 25.2555C20.6461 25.5776 21.4826 25.6004 22.2397 25.3193C22.9968 25.0382 23.6156 24.4749 23.9665 23.7475C24.3173 23.0201 24.373 22.1851 24.1217 21.4175C23.8705 20.65 23.3318 20.0096 22.6188 19.6305V19.6297Z" fill="white"/>
</svg>
